<?xml version="1.0" encoding="utf-8"?>
<!-- Generator: Adobe Illustrator 27.8.1, SVG Export Plug-In . SVG Version: 6.00 Build 0)  -->
<svg version="1.1" id="Layer_1" xmlns="http://www.w3.org/2000/svg" xmlns:xlink="http://www.w3.org/1999/xlink" x="0px" y="0px"
	 viewBox="0 0 54 34" enable-background="new 0 0 54 34" xml:space="preserve">
<g display="none">
	<g display="inline">
		<g>
			<path fill="#4E4E4F" d="M230.7,152.6l1.1-1.6c1.4-1.9,3-2.1,5.3-0.9c2.2,1.2,5.7,3.2,10.5,3.2c4.1,0,6.5-1.8,6.5-4.8
				c0-7.6-23.3-4.8-23.3-20.9c0-9.2,8.1-14.1,18-14.1c6.2,0,10.6,2,13.1,3.4c2.1,1.1,2.4,3,1.4,5.2l-0.9,1.7
				c-1.1,2.2-2.8,2.5-5.2,1.5c-2-0.9-5.1-2.3-8.9-2.3c-4.1,0-6.4,1.7-6.4,4.6c0,7.8,23.3,4.7,23.3,20.7c0,8.3-7,14.5-17.9,14.5
				c-7.6,0-12.8-2.8-15.7-4.8C229.5,156.7,229.3,154.7,230.7,152.6L230.7,152.6z"/>
			<path fill="#4E4E4F" d="M269.2,118.9c-0.7-2.6,0.6-4.3,3.2-4.3h4.4c2.3,0,3.7,1.1,4.2,3.4l7.5,27.5c0.5,2.5,0.9,5,0.9,5h0.2
				c0,0,0.4-2.5,1-5l7.9-27.5c0.5-2.2,1.9-3.3,4.2-3.3h3.5c2.3,0,3.7,1.1,4.2,3.3l7.8,27.5c0.7,2.5,1,5,1,5h0.2c0,0,0.4-2.5,1-5
				L328,118c0.5-2.3,1.9-3.4,4.2-3.4h4.2c2.8,0,3.9,1.7,3.2,4.3l-12.1,39.4c-0.6,2.2-2.1,3.2-4.3,3.2H317c-2.3,0-3.8-1.1-4.3-3.3
				l-7.1-23.5c-0.7-2.5-1.1-5.1-1.1-5.1h-0.2c0,0-0.5,2.6-1.2,5.1l-7.1,23.5c-0.6,2.2-1.9,3.3-4.3,3.3h-6.3c-2.2,0-3.6-1-4.2-3.2
				L269.2,118.9L269.2,118.9z"/>
			<path fill="#4E4E4F" d="M346.6,118.5c0-2.5,1.3-3.9,3.8-3.9h4.1c2.5,0,3.8,1.4,3.8,3.9v39.2c0,2.6-1.3,3.9-3.8,3.9h-4.1
				c-2.5,0-3.8-1.3-3.8-3.9V118.5L346.6,118.5z"/>
			<path fill="#4E4E4F" d="M365.9,152.6l1.1-1.6c1.4-1.9,3-2.1,5.3-0.9c2.2,1.2,5.7,3.2,10.5,3.2c4,0,6.5-1.8,6.5-4.8
				c0-7.6-23.3-4.8-23.3-20.9c0-9.2,8.1-14.1,18-14.1c6.3,0,10.6,2,13.1,3.4c2.1,1.1,2.4,3,1.4,5.2l-0.9,1.7
				c-1.1,2.2-2.9,2.5-5.2,1.5c-2-0.9-5.1-2.3-8.9-2.3c-4.1,0-6.4,1.7-6.4,4.6c0,7.8,23.3,4.7,23.3,20.7c0,8.3-7,14.5-17.9,14.5
				c-7.5,0-12.8-2.8-15.6-4.8C364.7,156.7,364.5,154.7,365.9,152.6L365.9,152.6z"/>
			<path fill="#4E4E4F" d="M407.3,100c0-2.5,1.4-3.9,3.9-3.9h3.9c2.6,0,3.9,1.4,3.9,3.9v19c0,2.3-0.3,4-0.3,4h0.2
				c2.3-4.5,8.2-9.5,16.3-9.5c10.4,0,16.4,5.4,16.4,17.9v26.4c0,2.6-1.4,3.9-3.9,3.9h-4c-2.6,0-3.9-1.3-3.9-3.9v-24
				c0-5.7-1.5-9.6-7.4-9.6c-8.2,0-13.5,6.6-13.5,15.6v18c0,2.6-1.3,3.9-3.9,3.9h-3.9c-2.5,0-3.9-1.3-3.9-3.9L407.3,100L407.3,100z"
				/>
			<path fill="#4E4E4F" d="M464.1,107.5c1.1,0,1.7-0.7,1.7-1.8s-0.6-1.7-1.7-1.7h-1.7v3.5H464.1L464.1,107.5z M460.5,103.4
				c0-0.6,0.3-0.9,0.9-0.9h3.2c2,0,3.3,1.3,3.3,3.2c0,1.6-1.1,2.6-1.9,2.8v0.1c0,0,0.1,0.1,0.4,0.6l1.5,2.8c0.3,0.6,0.1,1.1-0.5,1.1
				h-0.3c-0.5,0-0.9-0.2-1.1-0.7l-1.6-3.4h-1.7v3.2c0,0.6-0.3,0.9-0.9,0.9h-0.2c-0.6,0-0.9-0.3-0.9-0.9v-8.8H460.5z M463.9,116.1
				c4.5,0,8-3.6,8-8.3s-3.5-8.3-8-8.3c-4.4,0-7.9,3.6-7.9,8.3C456,112.4,459.4,116.1,463.9,116.1L463.9,116.1z M463.9,97.6
				c5.6,0,10,4.5,10,10.2s-4.4,10.2-10,10.2c-5.5,0-9.9-4.5-9.9-10.2S458.4,97.6,463.9,97.6L463.9,97.6z"/>
		</g>
	</g>
</g>
<g id="Symbol_x2F_Colour">
	<g id="Right-Swirl" transform="translate(119.332186, 49.114212)">
		
			<linearGradient id="Base-Shape_00000153680226062909549190000012638248889522085545_" gradientUnits="userSpaceOnUse" x1="-85.7346" y1="-59.2389" x2="-85.7516" y2="-59.1972" gradientTransform="matrix(300.2553 0 0 -370.4732 25655.4434 -21970.2324)">
			<stop  offset="0" style="stop-color:#EF2131"/>
			<stop  offset="1" style="stop-color:#FECF2C"/>
		</linearGradient>
		
			<path id="Base-Shape" fill-rule="evenodd" clip-rule="evenodd" fill="url(#Base-Shape_00000153680226062909549190000012638248889522085545_)" d="
			M-99.7-16.8c6.8,3.3,15.3,1.6,20.4-4.4c6-7.2,5.1-17.9-2.1-23.9l-4.8,5.7c5.6,4.7,6.4,13.1,1.6,18.7
			C-88.3-16.2-94.5-14.8-99.7-16.8"/>
		
			<linearGradient id="Light-Cast_00000075870151656297419580000004311227169743661442_" gradientUnits="userSpaceOnUse" x1="-85.752" y1="-58.9927" x2="-85.7922" y2="-59.0689" gradientTransform="matrix(273.8318 0 0 -300.1587 23400.6699 -17743.3281)">
			<stop  offset="0" style="stop-color:#FBC52C"/>
			<stop  offset="0.2639" style="stop-color:#F87130"/>
			<stop  offset="0.5608" style="stop-color:#EF52E2"/>
			<stop  offset="1" style="stop-color:#661EEC"/>
		</linearGradient>
		
			<path id="Light-Cast" fill-rule="evenodd" clip-rule="evenodd" fill="url(#Light-Cast_00000075870151656297419580000004311227169743661442_)" d="
			M-99.7-16.8c6.8,3.3,15.3,1.6,20.4-4.4c0.6-0.7,1.2-1.5,1.6-2.3c0.8-5-1-10.3-5.1-13.8c-1.1-0.9-2.2-1.6-3.4-2.1
			c5.6,4.7,6.4,13.1,1.6,18.7C-88.3-16.2-94.5-14.8-99.7-16.8"/>
	</g>
	<g id="Left-Swirl">
		
			<linearGradient id="Base-shape_00000038371902766356130430000012602704176150914999_" gradientUnits="userSpaceOnUse" x1="33.9588" y1="-10.2134" x2="33.9751" y2="-10.2541" gradientTransform="matrix(300.2549 0 0 -370.4733 -10174.668 -3774.7329)">
			<stop  offset="0" style="stop-color:#78F6D8"/>
			<stop  offset="0.2657" style="stop-color:#77D1F6"/>
			<stop  offset="0.5545" style="stop-color:#70A4F3"/>
			<stop  offset="1" style="stop-color:#661EEC"/>
		</linearGradient>
		
			<path id="Base-shape" fill-rule="evenodd" clip-rule="evenodd" fill="url(#Base-shape_00000038371902766356130430000012602704176150914999_)" d="
			M34.3,1.7C27.5-1.6,19.1,0,14,6.1C7.9,13.3,8.9,24,16.1,30l4.8-5.7c-5.6-4.7-6.4-13.1-1.6-18.7C23,1.1,29.2-0.4,34.3,1.7"/>
		
			<linearGradient id="Shadow_00000021839287791349935600000009090703849502951077_" gradientUnits="userSpaceOnUse" x1="33.8367" y1="-10.303" x2="33.8765" y2="-10.2271" gradientTransform="matrix(273.8316 0 0 -300.1583 -9249.8506 -3071.5833)">
			<stop  offset="0" style="stop-color:#536EED"/>
			<stop  offset="0.2467" style="stop-color:#54C3EC"/>
			<stop  offset="0.5642" style="stop-color:#64D769"/>
			<stop  offset="1" style="stop-color:#FECF2C"/>
		</linearGradient>
		
			<path id="Shadow" fill-rule="evenodd" clip-rule="evenodd" fill="url(#Shadow_00000021839287791349935600000009090703849502951077_)" d="
			M34.3,1.7C27.5-1.6,19.1,0,14,6.1c-0.6,0.7-1.2,1.5-1.6,2.3c-0.8,5,1,10.3,5.1,13.8c1.1,0.9,2.2,1.6,3.4,2.1
			c-5.6-4.7-6.4-13.1-1.6-18.7C23,1.1,29.2-0.4,34.3,1.7"/>
	</g>
</g>
</svg>
